<svg width="64" height="64" viewBox="0 0 64 64" fill="none" xmlns="http://www.w3.org/2000/svg">
<rect width="64" height="64" fill="white"/>
<g clip-path="url(#clip0)">
<path d="M44.1693 37.8532H49.1958C49.5926 37.8532 49.8571 37.5886 49.8571 37.1918V31.041C49.8571 30.6442 49.5926 30.3796 49.1958 30.3796H44.1693C43.7725 30.3796 43.5079 30.6442 43.5079 31.041V37.1918C43.5079 37.5886 43.7725 37.8532 44.1693 37.8532ZM44.8307 31.7024H48.5344V36.5304H44.8307V31.7024Z" fill="#868E96"/>
<path d="M35.5054 37.8532H40.5318C40.9287 37.8532 41.1932 37.5886 41.1932 37.1918V31.041C41.1932 30.6442 40.9287 30.3796 40.5318 30.3796H35.5054C35.1085 30.3796 34.844 30.6442 34.844 31.041V37.1918C34.844 37.5886 35.1747 37.8532 35.5054 37.8532ZM36.1667 31.7024H39.8705V36.5304H36.1667V31.7024Z" fill="#868E96"/>
<path d="M44.1693 49.9563H49.1958C49.5926 49.9563 49.8571 49.6918 49.8571 49.295V43.1442C49.8571 42.7473 49.5926 42.4828 49.1958 42.4828H44.1693C43.7725 42.4828 43.5079 42.7473 43.5079 43.1442V49.295C43.5079 49.6918 43.7725 49.9563 44.1693 49.9563ZM44.8307 43.8055H48.5344V48.6336H44.8307V43.8055Z" fill="#868E96"/>
<path d="M35.5054 49.9563H40.5318C40.9287 49.9563 41.1932 49.6918 41.1932 49.295V43.1442C41.1932 42.7473 40.9287 42.4828 40.5318 42.4828H35.5054C35.1085 42.4828 34.844 42.7473 34.844 43.1442V49.295C34.844 49.6918 35.1747 49.9563 35.5054 49.9563ZM36.1667 43.8055H39.8705V48.6336H36.1667V43.8055Z" fill="#868E96"/>
<path d="M44.1693 25.8823H49.1958C49.5926 25.8823 49.8571 25.6177 49.8571 25.2209V19.0701C49.8571 18.6733 49.5926 18.4088 49.1958 18.4088H44.1693C43.7725 18.4088 43.5079 18.6733 43.5079 19.0701V25.2209C43.5079 25.6177 43.7725 25.8823 44.1693 25.8823ZM44.8307 19.7315H48.5344V24.5595H44.8307V19.7315Z" fill="#868E96"/>
<path d="M35.5054 25.8823H40.5318C40.9287 25.8823 41.1932 25.6177 41.1932 25.2209V19.0701C41.1932 18.6733 40.9287 18.4088 40.5318 18.4088H35.5054C35.1085 18.4088 34.844 18.6733 34.844 19.0701V25.2209C34.844 25.6177 35.1747 25.8823 35.5054 25.8823ZM36.1667 19.7315H39.8705V24.5595H36.1667V19.7315Z" fill="#868E96"/>
<path d="M22.344 37.8532H27.3704C27.7673 37.8532 28.0318 37.5886 28.0318 37.1918V31.041C28.0318 30.6442 27.7673 30.3796 27.3704 30.3796H22.344C21.9472 30.3796 21.6826 30.6442 21.6826 31.041V37.1918C21.6826 37.5886 21.9472 37.8532 22.344 37.8532ZM23.0054 31.7024H26.7091V36.5304H23.0054V31.7024Z" fill="#868E96"/>
<path d="M18.7726 37.8532C19.1694 37.8532 19.4339 37.5886 19.4339 37.1918V31.041C19.4339 30.6442 19.1694 30.3796 18.7726 30.3796H13.7461C13.3493 30.3796 13.0847 30.6442 13.0847 31.041V37.1918C13.0847 37.5886 13.3493 37.8532 13.7461 37.8532H18.7726ZM14.3413 31.7024H18.045V36.5304H14.3413V31.7024Z" fill="#868E96"/>
<path d="M8.91797 26.4775H9.57934V56.7024C9.57934 57.0992 9.84389 57.3638 10.2407 57.3638H54.09C54.4868 57.3638 54.7513 57.0992 54.7513 56.7024V15.4987H55.082C55.4788 15.4987 55.7434 15.2341 55.7434 14.8373V10.869C55.7434 10.4722 55.4788 10.2077 55.082 10.2077H43.1772V7.29761C43.1772 6.90078 42.9127 6.63623 42.5159 6.63623H38.9444C38.5476 6.63623 38.2831 6.90078 38.2831 7.29761V10.2077H37.291V7.29761C37.291 6.90078 37.0264 6.63623 36.6296 6.63623H33.0582C32.6614 6.63623 32.3968 6.90078 32.3968 7.29761V10.2077H29.4206C29.0238 10.2077 28.7592 10.4722 28.7592 10.869V14.8373C28.7592 15.2341 29.0238 15.4987 29.4206 15.4987H29.7513V21.1865H8.91797C8.52114 21.1865 8.25659 21.4511 8.25659 21.8479V25.8161C8.25659 26.1468 8.52114 26.4775 8.91797 26.4775ZM10.9021 26.4775H29.8174V56.041H24.3942V42.7474C24.3942 42.3505 24.1296 42.086 23.7328 42.086H17.0529C16.6561 42.086 16.3915 42.3505 16.3915 42.7474V56.041H10.9021V26.4775ZM23.0714 56.041H17.7143V43.4087H23.0714V56.041ZM39.6058 7.89285H41.8545V10.1415H39.6058V7.89285ZM33.7196 7.89285H35.9682V10.1415H33.7196V7.89285ZM30.082 11.4643H54.4206V14.1098H30.082V11.4643ZM53.4286 15.4987V56.1072H31.0741V15.4987H53.4286ZM9.57934 22.5093H29.8174V25.1548H9.57934V22.5093Z" fill="#868E96"/>
</g>
<defs>
<clipPath id="clip0">
<rect width="51.2" height="51.2" fill="white" transform="translate(6.40002 6.40002)"/>
</clipPath>
</defs>
</svg>
