<svg width="64" height="64" viewBox="0 0 64 64" fill="none" xmlns="http://www.w3.org/2000/svg">
<rect width="64" height="64" fill="white"/>
<g clip-path="url(#clip0)">
<path d="M18.0256 29.8956C15.9787 29.8956 14.3131 31.5613 14.3131 33.6081V38.855C14.3131 39.2088 14.5994 39.495 14.9531 39.495H21.0975C21.4512 39.495 21.7375 39.2088 21.7375 38.855V33.6081C21.7375 31.5613 20.0725 29.8956 18.0256 29.8956ZM20.4575 38.215H15.5931V33.6081C15.5931 32.2669 16.6844 31.1756 18.0256 31.1756C19.3669 31.1756 20.4575 32.2669 20.4575 33.6081V38.215Z" fill="#868E96"/>
<path d="M42.9825 39.495H49.1269C49.4807 39.495 49.7669 39.2088 49.7669 38.855V33.6081C49.7669 31.5613 48.1013 29.8956 46.0544 29.8956C44.0075 29.8956 42.3425 31.5613 42.3425 33.6081V38.855C42.3425 39.2088 42.6288 39.495 42.9825 39.495ZM43.6225 33.6081C43.6225 32.2669 44.7132 31.1756 46.0544 31.1756C47.3957 31.1756 48.4869 32.2669 48.4869 33.6081V38.215H43.6225V33.6081Z" fill="#868E96"/>
<path d="M18.0256 42.8131C15.9787 42.8131 14.3131 44.4781 14.3131 46.525V51.7725C14.3131 52.1262 14.5994 52.4125 14.9531 52.4125H21.0975C21.4512 52.4125 21.7375 52.1262 21.7375 51.7725V46.525C21.7375 44.4781 20.0725 42.8131 18.0256 42.8131ZM20.4575 51.1325H15.5931V46.525C15.5931 45.1837 16.6844 44.0931 18.0256 44.0931C19.3669 44.0931 20.4575 45.1837 20.4575 46.525V51.1325Z" fill="#868E96"/>
<path d="M42.9825 52.4125H49.1269C49.4807 52.4125 49.7669 52.1262 49.7669 51.7725V46.525C49.7669 44.4781 48.1013 42.8131 46.0544 42.8131C44.0075 42.8131 42.3425 44.4781 42.3425 46.525V51.7725C42.3425 52.1262 42.6288 52.4125 42.9825 52.4125ZM43.6225 46.525C43.6225 45.1837 44.7132 44.0931 46.0544 44.0931C47.3957 44.0931 48.4869 45.1837 48.4869 46.525V51.1325H43.6225V46.525Z" fill="#868E96"/>
<path d="M21.3058 6.40002H14.7458C14.3921 6.40002 14.1058 6.68627 14.1058 7.04002V13.2175H8.96019C8.64582 13.2175 8.37769 13.4463 8.32832 13.7569L6.40832 25.8369C6.37894 26.0219 6.43207 26.2106 6.55332 26.3531C6.67519 26.4956 6.85269 26.5775 7.04019 26.5775H8.73332V56.96C8.73332 57.3138 9.01957 57.6 9.37332 57.6H54.7071C55.0608 57.6 55.3471 57.3138 55.3471 56.96V26.5775H56.9602C57.1477 26.5775 57.3252 26.4956 57.4471 26.3531C57.5683 26.2106 57.6214 26.0219 57.5921 25.8369L55.6721 13.7569C55.6227 13.4463 55.3546 13.2175 55.0402 13.2175H49.9746V7.04002C49.9746 6.68627 49.6883 6.40002 49.3346 6.40002H42.7746C42.4208 6.40002 42.1346 6.68627 42.1346 7.04002V13.2175H21.9458V7.04002C21.9458 6.68627 21.6596 6.40002 21.3058 6.40002ZM15.3858 7.68002H20.6658V13.2175H15.3858V7.68002ZM37.1396 56.32H26.8608V40.9781C26.8608 38.1444 29.1664 35.8388 32.0002 35.8388C34.8339 35.8388 37.1396 38.1444 37.1396 40.9781V56.32ZM54.0671 56.32H38.4196V40.9781C38.4196 37.4388 35.5396 34.5588 32.0002 34.5588C28.4608 34.5588 25.5808 37.4388 25.5808 40.9781V56.32H10.0133V26.5775H24.0464C24.2164 26.5775 24.3789 26.51 24.4989 26.39L32.0002 18.8888L39.5014 26.39C39.6214 26.51 39.7839 26.5775 39.9539 26.5775H54.0671V56.32ZM56.2102 25.2975H40.2189L32.4527 17.5313C32.2027 17.2813 31.7977 17.2813 31.5477 17.5313L23.7814 25.2975H7.79019L9.50644 14.4975H54.4939L56.2102 25.2975ZM43.4146 7.68002H48.6946V13.2175H43.4146V7.68002Z" fill="#868E96"/>
</g>
<defs>
<clipPath id="clip0">
<rect width="51.2" height="51.2" fill="white" transform="translate(6.40002 6.40002)"/>
</clipPath>
</defs>
</svg>
