<svg width="64" height="64" viewBox="0 0 64 64" fill="none" xmlns="http://www.w3.org/2000/svg">
<rect width="64" height="64" fill="white"/>
<g clip-path="url(#clip0)">
<path d="M57.2915 21.5811L51.8407 18.2851V7.08897C51.8407 6.73505 51.5539 6.44897 51.2007 6.44897H43.12C42.7667 6.44897 42.48 6.73505 42.48 7.08897V12.6256L32.3335 6.48993C32.2688 6.45089 32.1984 6.42593 32.1255 6.41441C31.9623 6.37601 31.7914 6.40289 31.648 6.48993L6.70914 21.5811C6.51778 21.697 6.40002 21.905 6.40002 22.129V27.409C6.40002 27.6381 6.52226 27.8499 6.7213 27.9639C6.92034 28.0791 7.16482 28.0771 7.36258 27.9613L11.1181 25.7655V51.5607H9.33122C8.97794 51.5607 8.69122 51.8467 8.69122 52.2007V56.9623C8.69122 57.3162 8.97794 57.6023 9.33122 57.6023H54.6675C55.0208 57.6023 55.3075 57.3162 55.3075 56.9623V52.2007C55.3075 51.8467 55.0208 51.5607 54.6675 51.5607H52.8807V25.7667L56.6368 27.9613C56.7367 28.0195 56.848 28.049 56.9594 28.049C57.0695 28.049 57.1795 28.0208 57.2781 27.9639C57.4778 27.8499 57.6 27.6381 57.6 27.409V22.129C57.6 21.905 57.4829 21.697 57.2915 21.5811ZM43.76 7.72897H50.56V17.5114L43.76 13.3994V7.72897ZM54.0282 56.3229H9.97186V52.8413H54.0282V56.3229ZM38.3731 51.5607H25.6269V32.689H38.3738V51.5607H38.3731ZM51.6013 51.5607H39.6531V32.049C39.6531 31.6951 39.3664 31.409 39.0131 31.409H24.9869C24.6336 31.409 24.3469 31.6951 24.3469 32.049V51.5607H12.3994V25.0167L31.9911 13.5607L51.6019 25.0186V51.5607H51.6013ZM56.32 26.2941L32.3136 12.2672C32.2138 12.209 32.1024 12.1795 31.9911 12.1795C31.8797 12.1795 31.7677 12.209 31.6679 12.2672L7.68002 26.2935V22.4899L31.9904 7.77953L56.32 22.4893V26.2941Z" fill="#868E96"/>
</g>
<defs>
<clipPath id="clip0">
<rect width="51.2" height="51.2" fill="white" transform="translate(6.40002 6.40002)"/>
</clipPath>
</defs>
</svg>
