<svg width="64" height="64" viewBox="0 0 64 64" fill="none" xmlns="http://www.w3.org/2000/svg">
<rect width="64" height="64" fill="white"/>
<g clip-path="url(#clip0)">
<path d="M56.9711 54.3158C55.6724 54.3158 54.992 54.968 54.4452 55.492C53.9483 55.9686 53.5892 56.3127 52.8045 56.3127C52.0202 56.3127 51.6611 55.9686 51.1642 55.4924C50.6174 54.968 49.937 54.3158 48.638 54.3158C47.3399 54.3158 46.6595 54.9683 46.113 55.4924C45.6167 55.9686 45.258 56.3127 44.4742 56.3127C43.6914 56.3127 43.333 55.9686 42.837 55.4924C42.2911 54.9683 41.6114 54.3158 40.3139 54.3158C39.0158 54.3158 38.3358 54.9683 37.7895 55.4924C37.2933 55.9686 36.9345 56.3127 36.1514 56.3127C35.3686 56.3127 35.0102 55.9686 34.5139 55.4924C33.9677 54.9683 33.288 54.3158 31.9902 54.3158C30.6924 54.3158 30.0127 54.9683 29.4664 55.4924C28.9702 55.9686 28.6117 56.3127 27.8289 56.3127C27.0461 56.3127 26.6877 55.9686 26.1914 55.4924C25.6452 54.9683 24.9655 54.3158 23.6677 54.3158C22.3702 54.3158 21.6908 54.9683 21.1449 55.4927C20.6489 55.9686 20.2905 56.3127 19.5083 56.3127C18.7264 56.3127 18.3686 55.9686 17.873 55.4927C17.327 54.9683 16.6477 54.3158 15.3508 54.3158C14.053 54.3158 13.3733 54.9683 12.827 55.4924C12.3308 55.9686 11.9724 56.3127 11.1895 56.3127C10.4067 56.3127 10.0486 55.9686 9.55235 55.4927C9.0061 54.9683 8.32642 54.3158 7.02892 54.3158C6.67548 54.3158 6.38892 54.6024 6.38892 54.9558C6.38892 55.3092 6.67548 55.5958 7.02892 55.5958C7.81173 55.5958 8.16985 55.9399 8.6661 56.4158C9.21235 56.9402 9.89204 57.5927 11.1895 57.5927C12.4874 57.5927 13.167 56.9402 13.7133 56.4161C14.2095 55.9399 14.568 55.5958 15.3508 55.5958C16.1327 55.5958 16.4905 55.9399 16.9861 56.4158C17.532 56.9402 18.2114 57.5927 19.5083 57.5927C20.8058 57.5927 21.4852 56.9402 22.0311 56.4158C22.527 55.9399 22.8855 55.5958 23.6677 55.5958C24.4505 55.5958 24.8089 55.9399 25.3052 56.4161C25.8514 56.9402 26.5311 57.5927 27.8289 57.5927C29.1267 57.5927 29.8064 56.9402 30.3527 56.4161C30.8489 55.9399 31.2074 55.5958 31.9902 55.5958C32.773 55.5958 33.1314 55.9399 33.6277 56.4161C34.1739 56.9402 34.8536 57.5927 36.1514 57.5927C37.4495 57.5927 38.1295 56.9402 38.6758 56.4161C39.172 55.9399 39.5308 55.5958 40.3139 55.5958C41.0964 55.5958 41.4549 55.9399 41.9508 56.4158C42.4967 56.9402 43.1764 57.5927 44.4742 57.5927C45.7724 57.5927 46.4527 56.9402 46.9992 56.4161C47.4955 55.9399 47.8542 55.5958 48.638 55.5958C49.4227 55.5958 49.7817 55.9399 50.2786 56.4164C50.8255 56.9405 51.5058 57.5927 52.8045 57.5927C54.1036 57.5927 54.7839 56.9405 55.3308 56.4161C55.8277 55.9399 56.1867 55.5958 56.9711 55.5958C57.3245 55.5958 57.6111 55.3092 57.6111 54.9558C57.6111 54.6024 57.3245 54.3158 56.9711 54.3158Z" fill="#868E96"/>
<path d="M56.9711 49.6134C55.6724 49.6134 54.992 50.2656 54.4452 50.7897C53.9483 51.2659 53.5892 51.61 52.8045 51.61C52.0202 51.61 51.6611 51.2659 51.1642 50.7897C50.6174 50.2656 49.937 49.6134 48.638 49.6134C47.3399 49.6134 46.6595 50.2656 46.113 50.7897C45.6167 51.2659 45.258 51.61 44.4742 51.61C43.6914 51.61 43.333 51.2659 42.837 50.79C42.2911 50.2656 41.6114 49.6134 40.3139 49.6134C39.0161 49.6134 38.3361 50.2656 37.7895 50.79C37.2933 51.2659 36.9345 51.61 36.1514 51.61C35.3686 51.61 35.0102 51.2659 34.5139 50.79C33.9677 50.2656 33.288 49.6134 31.9902 49.6134C30.6924 49.6134 30.0127 50.2656 29.4664 50.79C28.9702 51.2659 28.6117 51.61 27.8289 51.61C27.0461 51.61 26.6877 51.2659 26.1914 50.79C25.6452 50.2656 24.9655 49.6134 23.6677 49.6134C22.3705 49.6134 21.6908 50.2659 21.1449 50.79C20.6489 51.2659 20.2908 51.61 19.5083 51.61C18.7264 51.61 18.3683 51.2662 17.873 50.79C17.327 50.2659 16.6477 49.6134 15.3508 49.6134C14.053 49.6134 13.3733 50.2656 12.827 50.79C12.3308 51.2659 11.9724 51.61 11.1895 51.61C10.4067 51.61 10.0483 51.2659 9.55235 50.79C9.0061 50.2659 8.32642 49.6134 7.02892 49.6134C6.67548 49.6134 6.38892 49.9 6.38892 50.2534C6.38892 50.6068 6.67548 50.8934 7.02892 50.8934C7.81173 50.8934 8.17017 51.2375 8.6661 51.7134C9.21235 52.2375 9.89204 52.89 11.1895 52.89C12.4874 52.89 13.167 52.2378 13.7133 51.7134C14.2095 51.2375 14.568 50.8934 15.3508 50.8934C16.1327 50.8934 16.4908 51.2372 16.9861 51.7134C17.532 52.2375 18.2114 52.89 19.5083 52.89C20.8055 52.89 21.4852 52.2375 22.0311 51.7134C22.527 51.2375 22.8852 50.8934 23.6677 50.8934C24.4505 50.8934 24.8089 51.2375 25.3052 51.7134C25.8514 52.2378 26.5311 52.89 27.8289 52.89C29.1267 52.89 29.8064 52.2378 30.3527 51.7134C30.8489 51.2375 31.2074 50.8934 31.9902 50.8934C32.773 50.8934 33.1314 51.2375 33.6277 51.7134C34.1739 52.2378 34.8536 52.89 36.1514 52.89C37.4492 52.89 38.1292 52.2378 38.6758 51.7134C39.172 51.2375 39.5308 50.8934 40.3139 50.8934C41.0964 50.8934 41.4549 51.2375 41.9508 51.7134C42.4967 52.2375 43.1767 52.89 44.4742 52.89C45.7724 52.89 46.4527 52.2378 46.9992 51.7137C47.4955 51.2375 47.8542 50.8934 48.638 50.8934C49.4227 50.8934 49.7817 51.2375 50.2786 51.7137C50.8255 52.2378 51.5058 52.89 52.8045 52.89C54.1036 52.89 54.7839 52.2378 55.3308 51.7137C55.8277 51.2375 56.1867 50.8934 56.9711 50.8934C57.3245 50.8934 57.6111 50.6068 57.6111 50.2534C57.6111 49.9 57.3245 49.6134 56.9711 49.6134Z" fill="#868E96"/>
<path d="M7.0294 45.8817C6.67597 45.8817 6.3894 46.1683 6.3894 46.5217C6.3894 46.8751 6.67597 47.1617 7.0294 47.1617H56.9492C57.3027 47.1617 57.5892 46.8751 57.5892 46.5217C57.5892 46.1683 57.3027 45.8817 56.9492 45.8817C56.9492 45.8817 42.3853 45.8817 41.0497 45.8817V31.6148H42.5491C42.9025 31.6148 43.1891 31.3283 43.1891 30.9748V24.6817C43.1891 24.3283 42.9025 24.0417 42.5491 24.0417H41.0497V15.02L41.4763 15.346C41.5925 15.4348 41.7291 15.4776 41.8644 15.4776C42.0572 15.4776 42.2475 15.391 42.3735 15.2264C42.5882 14.9454 42.5344 14.5439 42.2538 14.3292L32.0625 6.53919C31.8332 6.36356 31.5144 6.36356 31.285 6.53919L21.0938 14.3292C20.8132 14.5439 20.7594 14.9454 20.9741 15.2264C21.1882 15.5067 21.59 15.561 21.8713 15.346L22.2978 15.02V24.0417H20.7891C20.4357 24.0417 20.1491 24.3283 20.1491 24.6817V30.9748C20.1491 31.3283 20.4357 31.6148 20.7891 31.6148H22.2978V45.8817C21.3778 45.8817 98.3785 45.8817 7.0294 45.8817ZM34.3025 45.8817H29.045V35.7564H34.3025V45.8817ZM41.9091 30.3348H38.816V25.3217H41.9091V30.3348ZM28.8603 25.3217V30.3348H25.8025V25.3217H28.8603ZM34.3025 24.0417H29.045V17.8329H34.3025V24.0417ZM30.1403 25.3217H33.1982V30.3348H30.1403V25.3217ZM34.4782 25.3217H37.536V30.3348H34.4782V25.3217ZM23.5778 14.0416L31.6738 7.85325L39.7697 14.0416V24.0417H35.5825V17.1929C35.5825 16.8395 35.296 16.5529 34.9425 16.5529H28.405C28.0516 16.5529 27.765 16.8395 27.765 17.1929V24.0417H23.5778V14.0416ZM21.4291 25.3217H24.5225V30.3348H21.4291V25.3217ZM23.5778 31.6148H39.7697V45.8817H35.5825V35.1164C35.5825 34.7629 35.296 34.4764 34.9425 34.4764H28.405C28.0516 34.4764 27.765 34.7629 27.765 35.1164V45.8817H23.5778V31.6148Z" fill="#868E96"/>
</g>
<defs>
<clipPath id="clip0">
<rect width="51.2" height="51.2" fill="white" transform="translate(6.40002 6.40002)"/>
</clipPath>
</defs>
</svg>
